<svg xmlns="http://www.w3.org/2000/svg" width="11.844" height="19.74" viewBox="0 0 11.844 19.74">
  <g id="mic" transform="translate(-7 -2)">
    <path id="Path_552" data-name="Path 552" d="M13.764,13.844A2.764,2.764,0,0,1,11,11.081V4.764a2.764,2.764,0,0,1,5.527,0v6.317a2.764,2.764,0,0,1-2.764,2.764Z" transform="translate(-0.842)" fill="#919191"/>
    <path id="Path_553" data-name="Path 553" d="M17.265,10v2.764a4.343,4.343,0,0,1-8.686,0V10H7v2.764a5.926,5.926,0,0,0,5.133,5.863v3.218H9.369v1.579h7.107V21.844H13.712V18.627a5.926,5.926,0,0,0,5.133-5.863V10Z" transform="translate(0 -1.683)" fill="#919191"/>
  </g>
</svg>
