<svg width="26" height="22" viewBox="0 0 26 22" fill="none" xmlns="http://www.w3.org/2000/svg">
<path d="M22.7754 2.12947C21.6195 1.10572 20.1219 0.542656 18.5572 0.542656C16.7563 0.542656 14.984 1.28684 13.694 2.58491L13.1856 3.09547C13.0633 3.21884 12.855 3.21884 12.732 3.09547L12.0635 2.42347C10.8308 1.18316 9.1913 0.5 7.44765 0.5C5.74435 0.5 4.13217 1.15625 2.9092 2.34669C1.69209 3.53122 1.01455 5.16003 1.00023 6.93256C0.985257 8.78581 1.71292 10.5898 2.99642 11.8813L12.2725 21.2132C12.4567 21.3983 12.7007 21.5 12.9591 21.5C13.2175 21.5 13.4616 21.3983 13.6458 21.2132L23.0872 11.7153C24.3577 10.4369 25.0534 8.66703 24.9968 6.85972C24.9389 5.02616 24.1494 3.34681 22.7754 2.12947ZM22.6277 11.2507L13.1863 20.7486C13.0639 20.872 12.8543 20.872 12.7326 20.7486L3.45592 11.4167C2.29479 10.2492 1.63742 8.6165 1.65109 6.93847C1.6641 5.34312 2.27136 3.88034 3.3609 2.81919C4.46215 1.74688 5.91357 1.15625 7.44765 1.15625C9.01817 1.15625 10.4943 1.77181 11.6047 2.88875L12.2725 3.56075C12.6402 3.93088 13.2781 3.93088 13.6458 3.56075L14.1535 3.05019C15.3224 1.87419 16.9281 1.19956 18.5572 1.19956C19.9637 1.19956 21.309 1.70487 22.3458 2.62297C23.5838 3.71891 24.2939 5.23091 24.3459 6.88072C24.398 8.53119 23.7881 10.0832 22.6277 11.2507Z" fill="#808184" stroke="#808184" stroke-width="0.5"/>
</svg>
